<?xml version="1.0" encoding="UTF-8"?>
<!DOCTYPE svg PUBLIC "-//W3C//DTD SVG 1.1//EN" "http://www.w3.org/Graphics/SVG/1.1/DTD/svg11.dtd">
<!-- Creator: CorelDRAW X8 -->
<svg xmlns="http://www.w3.org/2000/svg" xml:space="preserve" width="330mm" height="230mm" version="1.1" style="shape-rendering:geometricPrecision; text-rendering:geometricPrecision; image-rendering:optimizeQuality; fill-rule:evenodd; clip-rule:evenodd"
viewBox="0 0 33000 23000"
 xmlns:xlink="http://www.w3.org/1999/xlink">
 <defs>
  <style type="text/css">
   <![CDATA[
    .str1 {stroke:#BA3955;stroke-width:7.62}
    .str0 {stroke:#00A0E3;stroke-width:7.62}
    .fil1 {fill:#BA3955}
    .fil4 {fill:#00A0E3}
    .fil0 {fill:#00A0E3}
    .fil3 {fill:#BA3955;fill-rule:nonzero}
    .fil2 {fill:#00A0E3;fill-rule:nonzero}
    .fnt1 {font-weight:normal;font-size:1693.33px;font-family:'Arial Rounded MT Bold'}
    .fnt0 {font-weight:normal;font-size:1693.33px;font-family:'Gill Sans Ultra Bold'}
   ]]>
  </style>
 </defs>
 <g id="Layer_x0020_1">
  <metadata id="CorelCorpID_0Corel-Layer"/>
  <text x="-7385" y="-9170"  class="fil0 str0 fnt0">WEB</text>
  <text x="-2604" y="-9170"  class="fil1 str1 fnt1">zecute</text>
  <g id="_2306166392928">
   <g>
    <path class="fil2" d="M16097 11560l-39 0 -42 -120 51 0 14 39 15 -39 37 0 15 39 13 -39 52 0 -40 120 -39 0 -19 -48 -18 48zm228 -30l0 30 -100 0 0 -120 100 0 0 30 -47 0 0 15 33 0 0 30 -33 0 0 15 47 0zm16 -90l75 0c15,0 27,3 35,9 7,6 11,14 11,24 0,12 -5,20 -15,26 6,3 11,7 14,12 3,4 5,9 5,16 0,10 -4,18 -11,24 -7,6 -18,9 -31,9l-83 0 0 -120zm53 24l0 23 1 0c6,0 10,0 12,-2 3,-2 4,-5 4,-9 0,-8 -5,-12 -14,-12l-3 0zm0 44l0 25 2 0c6,0 10,0 13,-2 2,-2 3,-5 3,-10 0,-9 -5,-13 -14,-13l-4 0z"/>
    <path class="fil3" d="M16539 11499l-39 44 42 0c4,0 6,1 8,3 2,1 2,3 2,6 0,2 0,4 -2,6 -2,1 -4,2 -8,2l-58 0c-4,0 -7,-1 -9,-3 -2,-2 -3,-4 -3,-7 0,-2 1,-4 2,-6 1,-2 4,-5 9,-10 4,-5 9,-10 13,-14 3,-4 7,-8 10,-12 4,-4 6,-7 9,-9 2,-3 3,-5 5,-7l-32 0c-5,0 -8,0 -10,-1 -2,-1 -3,-3 -3,-6 0,-3 0,-5 2,-6 2,-2 4,-3 7,-3l50 0c4,0 8,1 10,3 3,1 4,3 4,7 0,1 0,2 -1,3 0,1 -1,2 -2,3 0,1 -1,2 -2,3 -1,1 -2,3 -4,4zm84 24l-42 0c0,5 1,10 3,13 2,4 4,7 7,9 4,2 7,3 11,3 2,0 5,-1 7,-1 2,-1 4,-2 6,-3 2,-1 4,-3 6,-4 1,-2 3,-4 6,-6 1,-1 3,-2 5,-2 2,0 4,1 5,2 1,1 2,3 2,5 0,2 -1,4 -2,7 -2,3 -4,5 -7,8 -3,2 -7,4 -12,5 -4,2 -10,3 -16,3 -13,0 -24,-4 -32,-12 -7,-8 -11,-19 -11,-32 0,-6 1,-12 3,-18 2,-5 4,-10 8,-14 4,-3 8,-6 13,-8 6,-3 11,-4 18,-4 8,0 15,2 21,6 6,3 11,8 14,13 3,6 4,12 4,18 0,5 -1,8 -4,10 -3,2 -8,2 -13,2zm-42 -12l39 0c-1,-7 -3,-13 -6,-16 -4,-4 -8,-6 -14,-6 -5,0 -10,2 -13,6 -3,4 -6,9 -6,16zm155 24c0,3 -1,6 -3,9 -1,3 -4,6 -7,8 -3,3 -8,5 -13,7 -5,2 -10,3 -16,3 -14,0 -24,-4 -31,-12 -8,-8 -12,-18 -12,-31 0,-9 2,-17 5,-23 4,-7 9,-12 15,-16 7,-4 14,-6 23,-6 6,0 11,1 16,3 4,1 8,4 11,6 4,3 6,5 8,8 2,3 2,6 2,9 0,2 -1,4 -2,6 -2,2 -5,3 -7,3 -2,0 -4,-1 -5,-2 -1,-1 -2,-2 -4,-4 -2,-4 -5,-7 -8,-9 -3,-2 -7,-3 -11,-3 -6,0 -11,2 -15,7 -4,5 -6,12 -6,21 0,4 0,7 1,11 1,3 3,6 5,8 2,3 4,5 7,6 2,1 5,2 8,2 5,0 8,-1 11,-3 3,-2 6,-5 9,-9 1,-3 2,-5 4,-6 1,-1 3,-2 5,-2 3,0 5,1 7,3 2,2 3,4 3,6zm74 15l0 -3c-3,3 -5,6 -8,8 -3,2 -6,4 -10,5 -3,1 -7,2 -11,2 -5,0 -10,-1 -14,-4 -4,-2 -7,-5 -9,-8 -3,-5 -4,-12 -4,-20l0 -43c0,-4 0,-7 2,-9 2,-2 5,-3 8,-3 3,0 6,1 8,3 2,2 3,5 3,9l0 35c0,5 0,9 1,12 1,4 3,6 5,8 2,2 5,3 9,3 3,0 7,-1 10,-3 3,-2 5,-5 7,-9 1,-3 2,-9 2,-20l0 -26c0,-4 1,-7 3,-9 2,-2 4,-3 7,-3 4,0 6,1 8,3 2,2 3,5 3,9l0 63c0,4 -1,7 -3,9 -2,2 -4,3 -7,3 -3,0 -5,-1 -7,-3 -2,-3 -3,-5 -3,-9zm43 -74l2 0 0 -12c0,-4 0,-7 0,-9 0,-2 1,-3 2,-5 1,-1 2,-2 3,-3 2,-1 4,-2 6,-2 2,0 5,1 7,3 1,2 2,4 3,6 0,1 0,4 0,8l0 14 8 0c3,0 6,1 7,3 2,1 3,3 3,5 0,3 -2,5 -4,6 -2,1 -5,2 -10,2l-4 0 0 39c0,4 0,6 1,8 0,2 1,3 2,5 1,1 2,1 5,1 1,0 3,0 5,0 2,-1 4,-1 5,-1 1,0 3,1 4,2 2,1 2,3 2,5 0,4 -1,6 -5,8 -4,2 -9,3 -16,3 -7,0 -12,-1 -16,-4 -3,-2 -5,-5 -6,-9 -2,-4 -2,-9 -2,-16l0 -41 -3 0c-3,0 -5,-1 -7,-2 -2,-2 -2,-4 -2,-6 0,-2 0,-4 2,-5 2,-2 4,-3 8,-3zm115 47l-42 0c0,5 1,10 3,13 2,4 5,7 8,9 3,2 6,3 10,3 3,0 5,-1 7,-1 2,-1 5,-2 7,-3 2,-1 3,-3 5,-4 2,-2 4,-4 7,-6 1,-1 2,-2 4,-2 2,0 4,1 6,2 1,1 2,3 2,5 0,2 -1,4 -3,7 -1,3 -3,5 -7,8 -3,2 -6,4 -11,5 -5,2 -10,3 -16,3 -14,0 -25,-4 -32,-12 -8,-8 -12,-19 -12,-32 0,-6 1,-12 3,-18 2,-5 5,-10 8,-14 4,-3 8,-6 14,-8 5,-3 11,-4 17,-4 9,0 16,2 22,6 6,3 10,8 13,13 3,6 5,12 5,18 0,5 -2,8 -5,10 -3,2 -7,2 -13,2zm-42 -12l39 0c0,-7 -2,-13 -6,-16 -3,-4 -8,-6 -13,-6 -6,0 -10,2 -14,6 -3,4 -5,9 -6,16z"/>
   </g>
   <rect class="fil1" x="16013" y="11412" width="450.21" height="20.6648" rx="10" ry="10"/>
   <rect class="fil4" x="16469" y="11568" width="517.835" height="20.6648" rx="12" ry="10"/>
  </g>
 </g>
</svg>
